<svg width="24" height="24" viewBox="0 0 24 24" fill="none" xmlns="http://www.w3.org/2000/svg">
<path d="M14 7V9M14 11V13M14 15V17M2.58579 19.4142C3.17157 20 4.11438 20 6 20H18C19.8856 20 20.8284 20 21.4142 19.4142C22 18.8284 22 17.8856 22 16V14.9585C21.8374 14.9858 21.6704 15 21.5 15C19.8431 15 18.5 13.6569 18.5 12C18.5 10.3431 19.8431 9 21.5 9C21.6704 9 21.8374 9.0142 22 9.04148V8C22 6.11438 22 5.17157 21.4142 4.58579C20.8284 4 19.8856 4 18 4H6C4.11438 4 3.17157 4 2.58579 4.58579C2 5.17157 2 6.11438 2 8V9C3.65685 9 5 10.3431 5 12C5 13.6569 3.65685 15 2 15V16C2 17.8856 2 18.8284 2.58579 19.4142Z" stroke="black" stroke-width="2" stroke-linejoin="round"/>
</svg>
