<svg width="24" height="24" viewBox="0 0 24 24" fill="none" xmlns="http://www.w3.org/2000/svg">
<path d="M16.1569 5.00617L16.2354 4.00925L16.1569 5.00617ZM17.9938 6.84308L18.9908 6.76462L17.9938 6.84308ZM2.00617 6.84308L1.00925 6.76462L2.00617 6.84308ZM3.84308 5.00617L3.76462 4.00925L3.84308 5.00617ZM3 8V7.2H1V8H3ZM4.2 6H15.8V4H4.2V6ZM17 7.2V8H19V7.2H17ZM17 8C17 11.866 13.866 15 10 15V17C14.9706 17 19 12.9706 19 8H17ZM15.8 6C16.0047 6 16.0492 6.00078 16.0785 6.00308L16.2354 4.00925C16.108 3.99922 15.9667 4 15.8 4V6ZM19 7.2C19 7.03331 19.0008 6.892 18.9908 6.76462L16.9969 6.92154C16.9992 6.95083 17 6.99525 17 7.2H19ZM16.0785 6.00308C16.5688 6.04168 16.9583 6.43116 16.9969 6.92154L18.9908 6.76462C18.875 5.29349 17.7065 4.12503 16.2354 4.00925L16.0785 6.00308ZM3 7.2C3 6.99526 3.00078 6.95084 3.00308 6.92154L1.00925 6.76462C0.999223 6.892 1 7.0333 1 7.2H3ZM4.2 4C4.0333 4 3.892 3.99922 3.76462 4.00925L3.92154 6.00308C3.95084 6.00078 3.99526 6 4.2 6V4ZM3.00308 6.92154C3.04168 6.43116 3.43116 6.04168 3.92154 6.00308L3.76462 4.00925C2.29349 4.12503 1.12503 5.29349 1.00925 6.76462L3.00308 6.92154ZM1 8C1 12.9706 5.02944 17 10 17V15C6.13401 15 3 11.866 3 8H1ZM1 20H23V18H1V20ZM18 8H19.375V6H18V8ZM17.625 13H15V15H17.625V13ZM21 9.625C21 11.489 19.489 13 17.625 13V15C20.5935 15 23 12.5935 23 9.625H21ZM19.375 8C20.2725 8 21 8.72754 21 9.625H23C23 7.62297 21.377 6 19.375 6V8Z" fill="black"/>
</svg>
