<svg width="24" height="24" viewBox="0 0 24 24" fill="none" xmlns="http://www.w3.org/2000/svg">
<path d="M10 5H16.5279C17.8932 5 19 6.10681 19 7.47214C19 8.40851 18.471 9.26452 17.6334 9.68328L4.02492 16.4875C3.39678 16.8016 3 17.4436 3 18.1459C3 19.1699 3.83011 20 4.8541 20H16M22 20C22 21.1046 21.1046 22 20 22C18.8954 22 18 21.1046 18 20C18 18.8954 18.8954 18 20 18C21.1046 18 22 18.8954 22 20ZM8 5C8 6.81263 5 10 5 10C5 10 2 6.81263 2 5C2 3.18737 3.34315 2 5 2C6.65685 2 8 3.18737 8 5Z" stroke="black" stroke-width="2" stroke-linejoin="round"/>
</svg>
