<svg width="24" height="24" viewBox="0 0 24 24" fill="none" xmlns="http://www.w3.org/2000/svg">
<path d="M16.9038 14.6571L17.6298 15.3448V15.3448L16.9038 14.6571ZM11.4116 20.4545L10.6856 19.7667H10.6856L11.4116 20.4545ZM6.62766 15.5913L7.30338 16.3285H7.30338L6.62766 15.5913ZM9.05392 13.3672L8.3782 12.6301H8.3782L9.05392 13.3672ZM9.6057 12.8126L8.80285 12.2164L8.80285 12.2164L9.6057 12.8126ZM9.96396 11.9981L10.9459 12.1871L10.9459 12.1871L9.96396 11.9981ZM6.52055 20.5205L7.22766 19.8134H7.22766L6.52055 20.5205ZM17.8579 13.4434L16.929 13.0732L16.929 13.0732L17.8579 13.4434ZM10.2929 2.29289L11 3L11 3L10.2929 2.29289ZM12 3H16V1H12V3ZM17 4V11.9061H19V4H17ZM16.1779 13.9693L10.6856 19.7667L12.1375 21.1422L17.6298 15.3448L16.1779 13.9693ZM7.30338 16.3285L9.72965 14.1044L8.3782 12.6301L5.95193 14.8542L7.30338 16.3285ZM11 11.2166V4H9V11.2166H11ZM9.72965 14.1044C9.99335 13.8627 10.2248 13.6562 10.4086 13.4087L8.80285 12.2164C8.75927 12.2751 8.69862 12.3364 8.3782 12.6301L9.72965 14.1044ZM9 11.2166C9 11.6513 8.9958 11.7374 8.98198 11.8092L10.9459 12.1871C11.0042 11.8844 11 11.5743 11 11.2166H9ZM10.4086 13.4087C10.6771 13.047 10.8608 12.6295 10.9459 12.1871L8.98198 11.8092C8.9536 11.9566 8.89238 12.0958 8.80285 12.2164L10.4086 13.4087ZM7.22766 19.8134C6.25624 18.842 6.29069 17.2568 7.30338 16.3285L5.95193 14.8542C4.09987 16.5519 4.03687 19.4511 5.81344 21.2277L7.22766 19.8134ZM10.6856 19.7667C9.75152 20.7527 8.18804 20.7738 7.22766 19.8134L5.81344 21.2277C7.56984 22.9841 10.4292 22.9454 12.1375 21.1422L10.6856 19.7667ZM17 11.9061C17 12.7715 16.9835 12.9363 16.929 13.0732L18.7869 13.8136C19.0165 13.2374 19 12.615 19 11.9061H17ZM17.6298 15.3448C18.1173 14.8302 18.5573 14.3897 18.7869 13.8136L16.929 13.0732C16.8744 13.2101 16.773 13.3411 16.1779 13.9693L17.6298 15.3448ZM16 3C16.4997 3 16.7738 3.00212 16.964 3.02769C17.1254 3.0494 17.0703 3.07032 17 3L18.4142 1.58579C18.051 1.22257 17.6137 1.09705 17.2305 1.04553C16.8761 0.997876 16.4431 1 16 1V3ZM19 4C19 3.55687 19.0021 3.12392 18.9545 2.76948C18.903 2.38628 18.7774 1.949 18.4142 1.58579L17 3C16.9297 2.92968 16.9506 2.87455 16.9723 3.03598C16.9979 3.22617 17 3.50033 17 4H19ZM12 1C11.5569 1 11.1239 0.997876 10.7695 1.04553C10.3863 1.09705 9.949 1.22257 9.58579 1.58579L11 3C10.9297 3.07032 10.8745 3.0494 11.036 3.02769C11.2262 3.00212 11.5003 3 12 3V1ZM11 4C11 3.50033 11.0021 3.22617 11.0277 3.03598C11.0494 2.87455 11.0703 2.92968 11 3L9.58579 1.58579C9.22257 1.949 9.09705 2.38628 9.04553 2.76948C8.99788 3.12392 9 3.55687 9 4H11ZM10 7H18V5H10V7Z" fill="black"/>
</svg>
