<svg width="24" height="24" viewBox="0 0 24 24" fill="none" xmlns="http://www.w3.org/2000/svg">
<path d="M12 9C14.5391 9 16.6763 10.7206 17.3094 13.0594C17.5337 13.0204 17.7645 13 18 13C20.2091 13 22 14.7909 22 17C22 19.2091 20.2091 21 18 21H6C3.79086 21 2 19.2091 2 17C2 14.7909 3.79086 13 6 13C6.23551 13 6.46626 13.0204 6.6906 13.0594C7.32367 10.7206 9.4609 9 12 9ZM12 9C12 8.2889 11.8516 7.61246 11.584 7C10.8124 5.2341 9.05032 4 7 4C4.23858 4 2 6.23858 2 9C2 10.8507 3.0055 12.4666 4.5 13.3311" stroke="black" stroke-width="2"/>
</svg>
