<svg width="24" height="24" viewBox="0 0 24 24" fill="none" xmlns="http://www.w3.org/2000/svg">
<path d="M18.5 22L17.7929 22.7071C18.1834 23.0976 18.8166 23.0976 19.2071 22.7071L18.5 22ZM4.5 2V16H6.5V2H4.5ZM11.5 23H14V21H11.5V23ZM19.5 15V2H17.5V15H19.5ZM4.5 16C4.5 17.3859 4.49788 18.526 4.61875 19.4251C4.7435 20.3529 5.01546 21.1723 5.67157 21.8284L7.08579 20.4142C6.86322 20.1916 6.69584 19.8646 6.60092 19.1586C6.50212 18.4237 6.5 17.4425 6.5 16H4.5ZM11.5 21C10.0575 21 9.07625 20.9979 8.34143 20.8991C7.63538 20.8042 7.30836 20.6368 7.08579 20.4142L5.67157 21.8284C6.32768 22.4845 7.14711 22.7565 8.07494 22.8812C8.974 23.0021 10.1141 23 11.5 23V21ZM11 17V19H13V17H11ZM13 7V5H11V7H13ZM12 15C13.6569 15 15 13.6569 15 12H13C13 12.5523 12.5523 13 12 13V15ZM15 12C15 10.3431 13.6569 9 12 9V11C12.5523 11 13 11.4477 13 12H15ZM12 9C10.3431 9 9 10.3431 9 12H11C11 11.4477 11.4477 11 12 11V9ZM9 12C9 13.6569 10.3431 15 12 15V13C11.4477 13 11 12.5523 11 12H9ZM2 3H22V1H2V3ZM17.5 17V22H19.5V17H17.5ZM19.2071 22.7071L21.7071 20.2071L20.2929 18.7929L17.7929 21.2929L19.2071 22.7071ZM19.2071 21.2929L16.7071 18.7929L15.2929 20.2071L17.7929 22.7071L19.2071 21.2929Z" fill="black"/>
</svg>
